<svg xmlns="http://www.w3.org/2000/svg" viewBox="15 0 275 265" fill="none">
  <g stroke="#1a3aaa" stroke-linecap="round" stroke-linejoin="round" fill="none">

    <!-- ===== رأس الحصان (يمين، أعلى) ===== -->
    <path d="M184 20
             C 191 10 205 8 212 20
             C 218 30 216 44 214 56
             C 212 66 210 74 215 84
             C 220 94 224 100 222 112
             C 220 122 212 128 200 130
             C 188 132 177 126 171 116
             C 165 106 165 95 168 84
             C 171 73 175 65 173 55
             C 171 44 169 32 171 24
             C 173 17 179 16 184 20 Z"
          stroke-width="7"/>

    <!-- أذن -->
    <path d="M184 20 C 186 8 196 4 200 13" stroke-width="5.5"/>

    <!-- خطم / أنف -->
    <path d="M215 68 C 225 68 233 62 233 54" stroke-width="5.5"/>

    <!-- لجام / نوزباند -->
    <path d="M218 112 C 228 116 237 110 239 101" stroke-width="4.5"/>

    <!-- ===== خصلات العرف (3 خطوط متوازية من العرف إلى أسفل يسار) ===== -->
    <!-- خصلة 1 — الخارجية -->
    <path d="M180 24 C 153 38 122 54 84 74" stroke-width="7.5"/>
    <!-- خصلة 2 — الوسطى -->
    <path d="M183 38 C 156 52 125 68 87 88" stroke-width="5.8"/>
    <!-- خصلة 3 — الداخلية -->
    <path d="M186 52 C 159 66 128 82 90 102" stroke-width="4.3"/>

    <!-- ===== الرقبة ===== -->
    <path d="M165 132 C 157 144 147 158 137 170" stroke-width="9.5"/>

    <!-- ===== قوس البطن / الصدر — من أسفل يسار إلى الرقبة ===== -->
    <path d="M30 246
             C 16 220 18 190 40 168
             C 64 144 100 138 137 142
             C 145 144 145 160 137 170"
          stroke-width="11.5"/>

    <!-- ===== خط الظهر — من أسفل يسار إلى الأرداف ===== -->
    <path d="M30 246
             C 56 260 98 266 148 258
             C 184 252 218 236 236 214"
          stroke-width="10"/>

    <!-- ===== الذيل — قوس خارجي ===== -->
    <path d="M236 214
             C 254 196 270 204 272 222
             C 274 240 256 254 236 248"
          stroke-width="8"/>

    <!-- ذيل — التفصيل الداخلي -->
    <path d="M236 248 C 222 244 218 232 228 224" stroke-width="6"/>

  </g>
</svg>
